<svg xmlns="http://www.w3.org/2000/svg" viewBox="0 0 242.5 338.8"><defs><style>.cls-1,.cls-4{fill:#f0efe9;}.cls-1,.cls-2{stroke:#717975;}.cls-1,.cls-2,.cls-3{stroke-linecap:round;stroke-linejoin:round;stroke-width:3px;}.cls-2,.cls-3{fill:none;}.cls-3{stroke:#afafa1;}.cls-5{fill:#f8f7f0;}</style></defs><title>analyse</title><g id="Layer_2" data-name="Layer 2"><g id="Layer_14" data-name="Layer 14"><path class="cls-1" d="M121.25,327.42"/><path class="cls-2" d="M104.14,258.28"/><path class="cls-2" d="M104.14,258.28"/><path class="cls-3" d="M146.91,302.73"/><g id="_Group_" data-name="&lt;Group&gt;"><polygon class="cls-4" points="206.78 169.4 206.78 258.28 155.46 287.91 155.46 199.03 206.78 169.4"/><polygon class="cls-5" points="206.78 169.4 155.46 199.03 155.46 169.4 129.8 154.58 155.46 139.77 206.78 169.4"/><polygon class="cls-4" points="155.46 199.03 155.46 287.91 104.14 317.54 104.14 199.03 155.46 169.4 155.46 199.03"/><polygon class="cls-4" points="155.46 31.12 155.46 139.77 129.8 154.58 104.14 139.77 104.14 110.14 104.14 60.75 155.46 31.12"/><polygon class="cls-5" points="155.46 31.12 104.14 60.75 52.82 31.12 104.14 1.5 155.46 31.12"/><polygon class="cls-5" points="155.46 169.4 104.14 199.03 52.82 169.4 104.14 139.77 129.8 154.58 155.46 169.4"/><polygon class="cls-4" points="104.14 199.03 104.14 317.54 52.82 287.91 52.82 169.4 104.14 199.03"/><polygon class="cls-4" points="104.14 110.14 104.14 139.77 52.82 169.4 52.82 159.52 52.82 139.77 104.14 110.14"/><polygon class="cls-4" points="104.14 60.75 104.14 110.14 52.82 80.51 52.82 31.12 104.14 60.75"/><polygon class="cls-5" points="104.14 110.14 52.82 139.77 1.5 110.14 52.82 80.51 104.14 110.14"/><polygon class="cls-4" points="52.82 169.4 52.82 287.91 1.5 258.28 1.5 110.14 52.82 139.77 52.82 159.52 52.82 169.4"/><polyline class="cls-2" points="155.46 139.77 155.46 31.12 104.14 1.5 52.82 31.12 52.82 80.51"/><path class="cls-2" d="M104.14,317.54"/><polyline class="cls-2" points="52.82 287.91 1.5 258.28 1.5 110.14 52.82 80.51 104.14 110.14 104.14 139.77 129.8 154.58 155.46 169.4 155.46 287.91"/><line class="cls-2" x1="104.14" y1="139.77" x2="52.82" y2="169.4"/><polyline class="cls-2" points="52.82 169.4 52.82 287.91 104.14 317.54 155.46 287.91 206.78 258.28 206.78 169.4 155.46 139.77 129.8 154.58"/><path class="cls-2" d="M104.14,110.14"/><path class="cls-2" d="M206.78,169.4"/><path class="cls-2" d="M52.82,169.4"/><path class="cls-2" d="M1.5,110.14"/></g><line class="cls-3" x1="121.25" y1="208.9" x2="138.36" y2="199.03"/><line class="cls-3" x1="121.25" y1="228.66" x2="138.36" y2="218.78"/><line class="cls-3" x1="121.25" y1="248.41" x2="138.36" y2="238.53"/><line class="cls-3" x1="121.25" y1="268.16" x2="138.36" y2="258.28"/><line class="cls-3" x1="121.25" y1="287.91" x2="138.36" y2="278.04"/><line class="cls-3" x1="172.57" y1="258.28" x2="189.68" y2="248.41"/><line class="cls-3" x1="172.57" y1="238.53" x2="189.68" y2="228.66"/><line class="cls-3" x1="172.57" y1="218.78" x2="189.68" y2="208.9"/><line class="cls-3" x1="172.57" y1="199.03" x2="189.68" y2="189.15"/><line class="cls-3" x1="138.36" y1="129.89" x2="121.25" y2="139.77"/><line class="cls-3" x1="138.36" y1="110.14" x2="121.25" y2="120.01"/><line class="cls-3" x1="138.36" y1="90.38" x2="121.25" y2="100.26"/><line class="cls-3" x1="138.36" y1="70.63" x2="121.25" y2="80.51"/><line class="cls-3" x1="138.36" y1="50.88" x2="121.25" y2="60.75"/><line class="cls-3" x1="172.57" y1="297.79" x2="189.68" y2="307.67"/><polyline class="cls-2" points="241 278.04 223.89 268.16 121.25 327.42 138.36 337.3"/><line class="cls-3" x1="223.89" y1="199.03" x2="241" y2="189.15"/><line class="cls-3" x1="223.89" y1="149.64" x2="241" y2="139.77"/><line class="cls-3" x1="223.89" y1="100.26" x2="241" y2="90.38"/><polyline class="cls-2" points="241 238.53 223.89 248.41 223.89 50.88 241 41"/><line class="cls-3" x1="69.93" y1="139.77" x2="87.04" y2="129.89"/></g></g></svg>