<svg xmlns="http://www.w3.org/2000/svg" viewBox="0 0 209 322"><defs><style>.cls-1{fill:none;stroke:#717975;stroke-linecap:round;stroke-linejoin:round;stroke-width:3px;}.cls-2{fill:#f0efe9;}.cls-3{fill:#f8f7f0;}.cls-4{fill:#717975;}.cls-5{fill:#afafa1;}</style></defs><title>analyse-thin</title><g id="Layer_2" data-name="Layer 2"><g id="Layer_18" data-name="Layer 18"><path class="cls-1" d="M104.14,258.28"/><path class="cls-1" d="M104.14,258.28"/><g id="_Group_" data-name="&lt;Group&gt;"><polygon class="cls-2" points="206.78 169.4 206.78 258.28 155.46 287.91 155.46 199.03 206.78 169.4"/><polygon class="cls-3" points="206.78 169.4 155.46 199.03 155.46 169.4 129.8 154.58 155.46 139.77 206.78 169.4"/><polygon class="cls-2" points="155.46 199.03 155.46 287.91 104.14 317.54 104.14 199.03 155.46 169.4 155.46 199.03"/><polygon class="cls-2" points="155.46 31.12 155.46 139.77 129.8 154.58 104.14 139.77 104.14 110.14 104.14 60.75 155.46 31.12"/><polygon class="cls-3" points="155.46 31.12 104.14 60.75 52.82 31.12 104.14 1.5 155.46 31.12"/><polygon class="cls-3" points="155.46 169.4 104.14 199.03 52.82 169.4 104.14 139.77 129.8 154.58 155.46 169.4"/><polygon class="cls-2" points="104.14 199.03 104.14 317.54 52.82 287.91 52.82 169.4 104.14 199.03"/><polygon class="cls-2" points="104.14 110.14 104.14 139.77 52.82 169.4 52.82 159.52 52.82 139.77 104.14 110.14"/><polygon class="cls-2" points="104.14 60.75 104.14 110.14 52.82 80.51 52.82 31.12 104.14 60.75"/><polygon class="cls-3" points="104.14 110.14 52.82 139.77 1.5 110.14 52.82 80.51 104.14 110.14"/><polygon class="cls-2" points="52.82 169.4 52.82 287.91 1.5 258.28 1.5 110.14 52.82 139.77 52.82 159.52 52.82 169.4"/><path class="cls-4" d="M155.46,141.27a1.5,1.5,0,0,1-1.5-1.5V32L104.14,3.23,54.32,32V80.51a1.5,1.5,0,0,1-3,0V31.12a1.5,1.5,0,0,1,.75-1.3L103.39.2a1.5,1.5,0,0,1,1.5,0l51.32,29.62a1.5,1.5,0,0,1,.75,1.3V139.77A1.5,1.5,0,0,1,155.46,141.27Z"/><path class="cls-1" d="M104.14,317.54"/><path class="cls-4" d="M52.82,289.41a1.49,1.49,0,0,1-.75-.2L.75,259.58a1.5,1.5,0,0,1-.75-1.3V110.14a1.5,1.5,0,0,1,.75-1.3L52.07,79.21a1.5,1.5,0,0,1,1.5,0l51.32,29.63a1.5,1.5,0,0,1,.75,1.3V138.9l50.57,29.2a1.5,1.5,0,0,1,.75,1.3V287.91a1.5,1.5,0,0,1-3,0V170.27l-50.57-29.2a1.5,1.5,0,0,1-.75-1.3V111L52.82,82.24,3,111V257.41l50.57,29.2a1.5,1.5,0,0,1-.75,2.8Z"/><path class="cls-4" d="M52.82,170.9a1.5,1.5,0,0,1-.75-2.8l51.32-29.63a1.5,1.5,0,1,1,1.5,2.6L53.57,170.7A1.49,1.49,0,0,1,52.82,170.9Z"/><path class="cls-4" d="M104.14,319a1.5,1.5,0,0,1-.75-.2L52.07,289.21a1.5,1.5,0,0,1-.75-1.3V169.4a1.5,1.5,0,0,1,3,0V287l49.82,28.76,101.14-58.39V170.27L155.46,141.5l-24.91,14.38a1.5,1.5,0,0,1-1.5-2.6l25.66-14.81a1.5,1.5,0,0,1,1.5,0l51.32,29.63a1.5,1.5,0,0,1,.75,1.3v88.88a1.5,1.5,0,0,1-.75,1.3L104.89,318.84A1.5,1.5,0,0,1,104.14,319Z"/><path class="cls-1" d="M104.14,110.14"/><path class="cls-1" d="M206.78,169.4"/><path class="cls-1" d="M52.82,169.4"/><path class="cls-1" d="M1.5,110.14"/></g><path class="cls-5" d="M121.25,210.4a1.5,1.5,0,0,1-.75-2.8l17.11-9.88a1.5,1.5,0,0,1,1.5,2.6L122,210.2A1.49,1.49,0,0,1,121.25,210.4Z"/><path class="cls-5" d="M121.25,230.16a1.5,1.5,0,0,1-.75-2.8l17.11-9.88a1.5,1.5,0,0,1,1.5,2.6L122,230A1.49,1.49,0,0,1,121.25,230.16Z"/><path class="cls-5" d="M121.25,249.91a1.5,1.5,0,0,1-.75-2.8l17.11-9.88a1.5,1.5,0,0,1,1.5,2.6L122,249.71A1.49,1.49,0,0,1,121.25,249.91Z"/><path class="cls-5" d="M121.25,269.66a1.5,1.5,0,0,1-.75-2.8L137.61,257a1.5,1.5,0,1,1,1.5,2.6L122,269.46A1.49,1.49,0,0,1,121.25,269.66Z"/><path class="cls-5" d="M121.25,289.41a1.5,1.5,0,0,1-.75-2.8l17.11-9.88a1.5,1.5,0,0,1,1.5,2.6L122,289.21A1.49,1.49,0,0,1,121.25,289.41Z"/><path class="cls-5" d="M172.57,259.78a1.5,1.5,0,0,1-.75-2.8l17.11-9.88a1.5,1.5,0,1,1,1.5,2.6l-17.11,9.88A1.49,1.49,0,0,1,172.57,259.78Z"/><path class="cls-5" d="M172.57,240a1.5,1.5,0,0,1-.75-2.8l17.11-9.88a1.5,1.5,0,0,1,1.5,2.6l-17.11,9.88A1.49,1.49,0,0,1,172.57,240Z"/><path class="cls-5" d="M172.57,220.28a1.5,1.5,0,0,1-.75-2.8l17.11-9.88a1.5,1.5,0,0,1,1.5,2.6l-17.11,9.88A1.49,1.49,0,0,1,172.57,220.28Z"/><path class="cls-5" d="M172.57,200.53a1.5,1.5,0,0,1-.75-2.8l17.11-9.88a1.5,1.5,0,1,1,1.5,2.6l-17.11,9.88A1.49,1.49,0,0,1,172.57,200.53Z"/><path class="cls-5" d="M121.25,141.27a1.5,1.5,0,0,1-.75-2.8l17.11-9.88a1.5,1.5,0,0,1,1.5,2.6L122,141.06A1.49,1.49,0,0,1,121.25,141.27Z"/><path class="cls-5" d="M121.25,121.51a1.5,1.5,0,0,1-.75-2.8l17.11-9.88a1.5,1.5,0,0,1,1.5,2.6L122,121.31A1.49,1.49,0,0,1,121.25,121.51Z"/><path class="cls-5" d="M121.25,101.76a1.5,1.5,0,0,1-.75-2.8l17.11-9.88a1.5,1.5,0,0,1,1.5,2.6L122,101.56A1.49,1.49,0,0,1,121.25,101.76Z"/><path class="cls-5" d="M121.25,82a1.5,1.5,0,0,1-.75-2.8l17.11-9.88a1.5,1.5,0,0,1,1.5,2.6L122,81.81A1.49,1.49,0,0,1,121.25,82Z"/><path class="cls-5" d="M121.25,62.25a1.5,1.5,0,0,1-.75-2.8l17.11-9.88a1.5,1.5,0,0,1,1.5,2.6L122,62.05A1.49,1.49,0,0,1,121.25,62.25Z"/><path class="cls-5" d="M69.93,141.27a1.5,1.5,0,0,1-.75-2.8l17.11-9.88a1.5,1.5,0,1,1,1.5,2.6l-17.11,9.88A1.49,1.49,0,0,1,69.93,141.27Z"/></g></g></svg>
