<svg xmlns="http://www.w3.org/2000/svg" viewBox="0 0 245.5 341.8"><defs><style>.cls-1,.cls-4{fill:#f0efe9;}.cls-1,.cls-2{stroke:#717975;}.cls-1,.cls-2,.cls-3{stroke-linecap:round;stroke-linejoin:round;stroke-width:6px;}.cls-2,.cls-3{fill:none;}.cls-3{stroke:#afafa1;}.cls-5{fill:#f8f7f0;}</style></defs><title>analyse</title><g id="Layer_2" data-name="Layer 2"><g id="Layer_14" data-name="Layer 14"><path class="cls-1" d="M122.75,328.92"/><path class="cls-2" d="M105.64,259.78"/><path class="cls-2" d="M105.64,259.78"/><path class="cls-3" d="M148.41,304.23"/><g id="_Group_" data-name="&lt;Group&gt;"><polygon class="cls-4" points="208.28 170.9 208.28 259.78 156.96 289.41 156.96 200.53 208.28 170.9"/><polygon class="cls-5" points="208.28 170.9 156.96 200.53 156.96 170.9 131.3 156.08 156.96 141.27 208.28 170.9"/><polygon class="cls-4" points="156.96 200.53 156.96 289.41 105.64 319.04 105.64 200.53 156.96 170.9 156.96 200.53"/><polygon class="cls-4" points="156.96 32.62 156.96 141.27 131.3 156.08 105.64 141.27 105.64 111.64 105.64 62.25 156.96 32.62"/><polygon class="cls-5" points="156.96 32.62 105.64 62.25 54.32 32.62 105.64 3 156.96 32.62"/><polygon class="cls-5" points="156.96 170.9 105.64 200.53 54.32 170.9 105.64 141.27 131.3 156.08 156.96 170.9"/><polygon class="cls-4" points="105.64 200.53 105.64 319.04 54.32 289.41 54.32 170.9 105.64 200.53"/><polygon class="cls-4" points="105.64 111.64 105.64 141.27 54.32 170.9 54.32 161.02 54.32 141.27 105.64 111.64"/><polygon class="cls-4" points="105.64 62.25 105.64 111.64 54.32 82.01 54.32 32.62 105.64 62.25"/><polygon class="cls-5" points="105.64 111.64 54.32 141.27 3 111.64 54.32 82.01 105.64 111.64"/><polygon class="cls-4" points="54.32 170.9 54.32 289.41 3 259.78 3 111.64 54.32 141.27 54.32 161.02 54.32 170.9"/><polyline class="cls-2" points="156.96 141.27 156.96 32.62 105.64 3 54.32 32.62 54.32 82.01"/><path class="cls-2" d="M105.64,319"/><polyline class="cls-2" points="54.32 289.41 3 259.78 3 111.64 54.32 82.01 105.64 111.64 105.64 141.27 131.3 156.08 156.96 170.9 156.96 289.41"/><line class="cls-2" x1="105.64" y1="141.27" x2="54.32" y2="170.9"/><polyline class="cls-2" points="54.32 170.9 54.32 289.41 105.64 319.04 156.96 289.41 208.28 259.78 208.28 170.9 156.96 141.27 131.3 156.08"/><path class="cls-2" d="M105.64,111.64"/><path class="cls-2" d="M208.28,170.9"/><path class="cls-2" d="M54.32,170.9"/><path class="cls-2" d="M3,111.64"/></g><line class="cls-3" x1="122.75" y1="210.4" x2="139.86" y2="200.53"/><line class="cls-3" x1="122.75" y1="230.16" x2="139.86" y2="220.28"/><line class="cls-3" x1="122.75" y1="249.91" x2="139.86" y2="240.03"/><line class="cls-3" x1="122.75" y1="269.66" x2="139.86" y2="259.78"/><line class="cls-3" x1="122.75" y1="289.41" x2="139.86" y2="279.54"/><line class="cls-3" x1="174.07" y1="259.78" x2="191.18" y2="249.91"/><line class="cls-3" x1="174.07" y1="240.03" x2="191.18" y2="230.16"/><line class="cls-3" x1="174.07" y1="220.28" x2="191.18" y2="210.4"/><line class="cls-3" x1="174.07" y1="200.53" x2="191.18" y2="190.65"/><line class="cls-3" x1="139.86" y1="131.39" x2="122.75" y2="141.27"/><line class="cls-3" x1="139.86" y1="111.64" x2="122.75" y2="121.51"/><line class="cls-3" x1="139.86" y1="91.88" x2="122.75" y2="101.76"/><line class="cls-3" x1="139.86" y1="72.13" x2="122.75" y2="82.01"/><line class="cls-3" x1="139.86" y1="52.38" x2="122.75" y2="62.25"/><line class="cls-3" x1="174.07" y1="299.29" x2="191.18" y2="309.17"/><polyline class="cls-2" points="242.5 279.54 225.39 269.66 122.75 328.92 139.86 338.8"/><line class="cls-3" x1="225.39" y1="200.53" x2="242.5" y2="190.65"/><line class="cls-3" x1="225.39" y1="151.14" x2="242.5" y2="141.27"/><line class="cls-3" x1="225.39" y1="101.76" x2="242.5" y2="91.88"/><polyline class="cls-2" points="242.5 240.03 225.39 249.91 225.39 52.38 242.5 42.5"/><line class="cls-3" x1="71.43" y1="141.27" x2="88.54" y2="131.39"/></g></g></svg>