<svg xmlns="http://www.w3.org/2000/svg" viewBox="0 0 245.5 341.8"><defs><style>.cls-1{fill:#f0efe9;}.cls-2{fill:#f8f7f0;}.cls-3{fill:#717975;}.cls-4{fill:#afafa1;}</style></defs><title>analyse</title><g id="Layer_2" data-name="Layer 2"><g id="Layer_17" data-name="Layer 17"><path class="cls-1" d="M160,198.8v85.42L205.28,258V172.63h0Zm12.61-.87,17.11-9.88a3,3,0,0,1,3,5.2l-17.11,9.88a3,3,0,0,1-3-5.2Zm20.11,54.58-17.11,9.88a3,3,0,1,1-3-5.2l17.11-9.88a3,3,0,1,1,3,5.2Zm0-19.75-17.11,9.88a3,3,0,0,1-3-5.2l17.11-9.88a3,3,0,0,1,3,5.2Zm0-19.75-17.11,9.88a3,3,0,0,1-3-5.2l17.11-9.88a3,3,0,0,1,3,5.2Z"/><path class="cls-2" d="M157,144.73,137.3,156.08l21.16,12.22a3,3,0,0,1,1.5,2.6v27.9l45.32-26.17Z"/><path class="cls-1" d="M57.32,172.63h0v115l48.32,27.9h0L154,287.68v-115l-48.32,27.9Zm63.93,35.17,17.11-9.88a3,3,0,0,1,3,5.2L124.25,213a3,3,0,0,1-3-5.2Zm0,19.75,17.11-9.88a3,3,0,0,1,3,5.2l-17.11,9.88a3,3,0,0,1-3-5.2Zm0,19.75,17.11-9.88a3,3,0,0,1,3,5.2l-17.11,9.88a3,3,0,1,1-3-5.2Zm0,19.75,17.11-9.88a3,3,0,1,1,3,5.2l-17.11,9.88a3,3,0,1,1-3-5.2Zm0,19.75,17.11-9.88a3,3,0,1,1,3,5.2L124.25,292a3,3,0,1,1-3-5.2Z"/><path class="cls-1" d="M107.14,109a3,3,0,0,1,1.5,2.6v27.9l22.66,13.08L154,139.54V34.35h0l-48.32,27.9L57.32,34.35h0V80.28l48.32,27.9ZM141.36,134l-17.11,9.88a3,3,0,0,1-3-5.2l17.11-9.88a3,3,0,0,1,3,5.2Zm-20.11-15.07L138.36,109a3,3,0,0,1,3,5.2l-17.11,9.88a3,3,0,1,1-3-5.2Zm0-59.26,17.11-9.88a3,3,0,0,1,3,5.2l-17.11,9.88a3,3,0,0,1-3-5.2Zm0,19.75,17.11-9.88a3,3,0,0,1,3,5.2l-17.11,9.88a3,3,0,0,1-3-5.2Zm0,19.75,17.11-9.88a3,3,0,0,1,3,5.2l-17.11,9.88a3,3,0,0,1-3-5.2Z"/><polygon class="cls-2" points="153.96 34.35 105.64 6.46 57.32 34.35 105.64 62.25 153.96 34.35"/><polygon class="cls-2" points="57.32 172.63 105.64 200.53 153.96 172.63 105.64 144.73 57.32 172.63"/><polygon class="cls-2" points="102.64 113.37 102.64 113.37 54.32 85.47 6 113.37 6 113.37 54.32 141.27 102.64 113.37"/><path class="cls-1" d="M102.64,113.37l-48.32,27.9L6,113.37V258l45.32,26.17V170.9s0-.06,0-.1a3,3,0,0,1,0-.32c0-.09,0-.18,0-.27s.05-.19.09-.28.06-.18.1-.27.09-.17.14-.25.09-.17.15-.24.12-.15.19-.23l.2-.21.21-.18.26-.19.08-.06,1.5-.87,48.32-27.9ZM90,134l-17.11,9.88a3,3,0,0,1-3-5.2L87,128.79a3,3,0,0,1,3,5.2Z"/><path class="cls-3" d="M211.28,259.78V170.9a3,3,0,0,0-1.5-2.6L160,139.54V32.62a3,3,0,0,0-1.5-2.6L107.14.4a3,3,0,0,0-3,0L52.82,30a3,3,0,0,0-1.5,2.6V80.28L1.5,109a3,3,0,0,0-1.5,2.6V259.78a3,3,0,0,0,1.5,2.6L52.82,292l51.32,29.63a3,3,0,0,0,3,0l102.64-59.26A3,3,0,0,0,211.28,259.78ZM57.32,34.35h0L105.64,6.46,154,34.35h0V139.54L131.3,152.62l-22.66-13.08v-27.9a3,3,0,0,0-1.5-2.6l-1.5-.87L57.32,80.28ZM52.82,168.3l-.08.06-.26.19-.21.18-.2.21c-.06.07-.13.15-.19.23s-.1.16-.15.24-.1.17-.14.25-.07.18-.1.27-.06.18-.09.28,0,.18,0,.27a3,3,0,0,0,0,.32s0,.06,0,.1V284.21L6,258V113.37H6l48.32-27.9,48.32,27.9h0v26.17l-48.32,27.9ZM154,287.68l-48.32,27.9h0l-48.32-27.9v-115h0l48.32-27.9L154,172.63ZM205.28,258,160,284.21V170.9a3,3,0,0,0-1.5-2.6L137.3,156.08,157,144.73l48.32,27.9h0Z"/><path class="cls-4" d="M122.75,213.4a3,3,0,0,0,1.5-.4l17.11-9.88a3,3,0,0,0-3-5.2l-17.11,9.88a3,3,0,0,0,1.5,5.6Z"/><path class="cls-4" d="M122.75,233.16a3,3,0,0,0,1.5-.4l17.11-9.88a3,3,0,0,0-3-5.2l-17.11,9.88a3,3,0,0,0,1.5,5.6Z"/><path class="cls-4" d="M122.75,252.91a3,3,0,0,0,1.5-.4l17.11-9.88a3,3,0,0,0-3-5.2l-17.11,9.88a3,3,0,0,0,1.5,5.6Z"/><path class="cls-4" d="M122.75,272.66a3,3,0,0,0,1.5-.4l17.11-9.88a3,3,0,1,0-3-5.2l-17.11,9.88a3,3,0,0,0,1.5,5.6Z"/><path class="cls-4" d="M122.75,292.42a3,3,0,0,0,1.5-.4l17.11-9.88a3,3,0,1,0-3-5.2l-17.11,9.88a3,3,0,0,0,1.5,5.6Z"/><path class="cls-4" d="M189.68,247.31l-17.11,9.88a3,3,0,1,0,3,5.2l17.11-9.88a3,3,0,1,0-3-5.2Z"/><path class="cls-4" d="M189.68,227.56l-17.11,9.88a3,3,0,1,0,3,5.2l17.11-9.88a3,3,0,0,0-3-5.2Z"/><path class="cls-4" d="M189.68,207.8l-17.11,9.88a3,3,0,1,0,3,5.2L192.68,213a3,3,0,0,0-3-5.2Z"/><path class="cls-4" d="M174.07,203.53a3,3,0,0,0,1.5-.4l17.11-9.88a3,3,0,0,0-3-5.2l-17.11,9.88a3,3,0,0,0,1.5,5.6Z"/><path class="cls-4" d="M138.36,128.79l-17.11,9.88a3,3,0,1,0,3,5.2L141.36,134a3,3,0,0,0-3-5.2Z"/><path class="cls-4" d="M122.75,124.51a3,3,0,0,0,1.5-.4l17.11-9.88a3,3,0,0,0-3-5.2l-17.11,9.88a3,3,0,0,0,1.5,5.6Z"/><path class="cls-4" d="M122.75,104.76a3,3,0,0,0,1.5-.4l17.11-9.88a3,3,0,0,0-3-5.2l-17.11,9.88a3,3,0,0,0,1.5,5.6Z"/><path class="cls-4" d="M122.75,85a3,3,0,0,0,1.5-.4l17.11-9.88a3,3,0,0,0-3-5.2l-17.11,9.88a3,3,0,0,0,1.5,5.6Z"/><path class="cls-4" d="M122.75,65.26a3,3,0,0,0,1.5-.4L141.36,55a3,3,0,0,0-3-5.2l-17.11,9.88a3,3,0,0,0,1.5,5.6Z"/><path class="cls-4" d="M189.68,311.76a3,3,0,1,0,3-5.2l-12.61-7.28-6,3.46Z"/><path class="cls-3" d="M180.07,299.29l45.32-26.17,15.61,9a3,3,0,0,0,3-5.2l-17.11-9.88a3,3,0,0,0-3,0L121.25,326.32a3,3,0,0,0,0,5.2l17.11,9.88a3,3,0,0,0,3-5.2l-12.61-7.28,45.32-26.17Z"/><path class="cls-4" d="M244,193.25a3,3,0,0,0-3-5.2l-12.61,7.28v6.93Z"/><path class="cls-4" d="M244,143.86a3,3,0,0,0-3-5.2l-12.61,7.28v6.93Z"/><path class="cls-4" d="M244,94.48a3,3,0,0,0-3-5.2l-12.61,7.28v6.93Z"/><path class="cls-3" d="M223.89,252.51a3,3,0,0,0,3,0L244,242.63a3,3,0,0,0-3-5.2l-12.61,7.28V54.11l15.61-9a3,3,0,0,0-3-5.2l-17.11,9.88a3,3,0,0,0-1.5,2.6V249.91A3,3,0,0,0,223.89,252.51Z"/><path class="cls-4" d="M87,128.79l-17.11,9.88a3,3,0,1,0,3,5.2L90,134a3,3,0,0,0-3-5.2Z"/></g></g></svg>