<?xml version="1.0" encoding="UTF-8"?>
<svg width="11px" height="11px" viewBox="0 0 11 11" version="1.1" xmlns="http://www.w3.org/2000/svg" xmlns:xlink="http://www.w3.org/1999/xlink">
    <!-- Generator: Sketch 47.1 (45422) - http://www.bohemiancoding.com/sketch -->
    <title>Path 2</title>
    <desc>Created with Sketch.</desc>
    <defs></defs>
    <g id="Design" stroke="none" stroke-width="1" fill="none" fill-rule="evenodd">
        <g id="List-v3" transform="translate(-284.000000, -109.000000)" fill="#BA7878">
            <g id="Group" transform="translate(12.000000, 96.000000)">
                <path d="M281.727922,14.2426407 C282.293607,14.8083261 282.293607,15.3740115 281.727922,15.939697 L279.193014,18.4746049 L281.727922,21.0308658 C282.293607,21.5965512 282.293607,22.1622366 281.727922,22.7279221 C281.162237,23.2936075 280.596551,23.2936075 280.030866,22.7279221 L277.486841,20.1807785 L274.939697,22.7279221 C274.374012,23.2936075 273.808326,23.2936075 273.242641,22.7279221 C272.676955,22.1622366 272.675704,21.5952996 273.238886,21.027111 L275.786029,18.4799675 L273.242641,15.939697 C272.676955,15.3740115 272.676955,14.8083261 273.242641,14.2426407 C273.808326,13.6769553 274.374012,13.6769553 274.939697,14.2426407 L277.477747,16.7882494 L280.027111,14.2388859 C280.5953,13.6757037 281.162237,13.6769553 281.727922,14.2426407 Z" id="Path-2"></path>
            </g>
        </g>
    </g>
</svg>