<?xml version="1.0" encoding="UTF-8"?>
<svg width="10px" height="10px" viewBox="0 0 10 10" version="1.1" xmlns="http://www.w3.org/2000/svg" xmlns:xlink="http://www.w3.org/1999/xlink">
    <!-- Generator: Sketch 48.2 (47327) - http://www.bohemiancoding.com/sketch -->
    <title>Path 2</title>
    <desc>Created with Sketch.</desc>
    <defs></defs>
    <g id="Add-items-v2-searching" stroke="none" stroke-width="1" fill="none" fill-rule="evenodd" transform="translate(-285.000000, -315.000000)">
        <g id="Group-2" transform="translate(0.000000, 292.000000)" fill="currentColor">
            <g id="Group-3" transform="translate(278.000000, 16.000000)">
                <path d="M16.5455004,7.45550747 C17.1514999,8.06150699 17.1514999,8.66750652 16.5455004,9.27350604 L13.8299399,11.9890665 L16.5455004,14.7275018 C17.1514999,15.3335013 17.1514999,15.9395008 16.5455004,16.5455004 C15.9395008,17.1514999 15.3335013,17.1514999 14.7275018,16.5455004 L12.0021742,13.8168322 L9.27350604,16.5455004 C8.66750652,17.1514999 8.06150699,17.1514999 7.45550747,16.5455004 C6.84950794,15.9395008 6.84816715,15.3321605 7.4514851,14.7234794 L10.1801532,11.9948113 L7.45550747,9.27350604 C6.84950794,8.66750652 6.84950794,8.06150699 7.45550747,7.45550747 C8.06150699,6.84950794 8.66750652,6.84950794 9.27350604,7.45550747 L11.9924331,10.1825314 L14.7234794,7.4514851 C15.3321605,6.84816715 15.9395008,6.84950794 16.5455004,7.45550747 Z" id="Path-2"></path>
            </g>
        </g>
    </g>
</svg>
