<?xml version="1.0" encoding="UTF-8"?>
<svg width="11px" height="11px" viewBox="0 0 11 11" version="1.1" xmlns="http://www.w3.org/2000/svg" xmlns:xlink="http://www.w3.org/1999/xlink">
    <!-- Generator: Sketch 47.1 (45422) - http://www.bohemiancoding.com/sketch -->
    <title>Path 2</title>
    <desc>Created with Sketch.</desc>
    <defs></defs>
    <g id="Design" stroke="none" stroke-width="1" fill="none" fill-rule="evenodd">
        <g id="List-v3" transform="translate(-284.000000, -109.000000)" fill="#BA7878">
            <g id="Group" transform="translate(12.000000, 96.000000)">
                <path d="M277.485281,12.4852814 C278.285281,12.4852814 278.685281,12.8852814 278.685281,13.6852814 L278.685281,17.2701825 L282.285281,17.2852814 C283.085281,17.2852814 283.485281,17.6852814 283.485281,18.4852814 C283.485281,19.2852814 283.085281,19.6852814 282.285281,19.6852814 L278.685281,19.6830764 L278.685281,23.2852814 C278.685281,24.0852814 278.285281,24.4852814 277.485281,24.4852814 C276.685281,24.4852814 276.283511,24.0852814 276.279971,23.2852814 L276.279971,19.6830764 L272.685281,19.6852814 C271.885281,19.6852814 271.485281,19.2852814 271.485281,18.4852814 C271.485281,17.6852814 271.885281,17.2852814 272.685281,17.2852814 L276.279971,17.2906258 L276.279971,13.6852814 C276.283511,12.8852814 276.685281,12.4852814 277.485281,12.4852814 Z" id="Path-2" transform="translate(277.485281, 18.485281) rotate(45.000000) translate(-277.485281, -18.485281) "></path>
            </g>
        </g>
    </g>
</svg>