<?xml version="1.0" encoding="UTF-8"?>
<svg width="97px" height="16px" viewBox="0 0 97 16" version="1.1" xmlns="http://www.w3.org/2000/svg" xmlns:xlink="http://www.w3.org/1999/xlink">
    <!-- Generator: Sketch 45.2 (43514) - http://www.bohemiancoding.com/sketch -->
    <title>Shopanalyst</title>
    <desc>Created with Sketch.</desc>
    <defs></defs>
    <g id="Symbols" stroke="none" stroke-width="1" fill="none" fill-rule="evenodd">
        <g id="Header" transform="translate(-10.000000, -14.000000)" fill="#86C283">
            <path d="M17.4453125,22.984375 C17.4453125,24.0156302 17.0742225,24.828122 16.3320312,25.421875 C15.58984,26.015628 14.5572983,26.3125 13.234375,26.3125 C12.0156189,26.3125 10.9375047,26.0833356 10,25.625 L10,23.375 C10.7708372,23.7187517 11.4231744,23.9609368 11.9570312,24.1015625 C12.4908881,24.2421882 12.9791645,24.3125 13.421875,24.3125 C13.9531277,24.3125 14.3606757,24.2109385 14.6445312,24.0078125 C14.9283868,23.8046865 15.0703125,23.5026062 15.0703125,23.1015625 C15.0703125,22.877603 15.0078131,22.6783863 14.8828125,22.5039062 C14.7578119,22.3294262 14.57422,22.1614591 14.3320312,22 C14.0898425,21.8385409 13.5963579,21.5807309 12.8515625,21.2265625 C12.1536423,20.8984359 11.6302101,20.5833348 11.28125,20.28125 C10.9322899,19.9791652 10.6536469,19.6276062 10.4453125,19.2265625 C10.2369781,18.8255188 10.1328125,18.3567735 10.1328125,17.8203125 C10.1328125,16.8098908 10.475257,16.0156279 11.1601562,15.4375 C11.8450555,14.8593721 12.7916606,14.5703125 14,14.5703125 C14.593753,14.5703125 15.1601536,14.6406243 15.6992188,14.78125 C16.2382839,14.9218757 16.8020804,15.1197904 17.390625,15.375 L16.609375,17.2578125 C15.999997,17.0078112 15.4960957,16.8333338 15.0976562,16.734375 C14.6992168,16.6354162 14.3072936,16.5859375 13.921875,16.5859375 C13.4635394,16.5859375 13.1119804,16.6927073 12.8671875,16.90625 C12.6223946,17.1197927 12.5,17.3984358 12.5,17.7421875 C12.5,17.9557302 12.5494787,18.1419263 12.6484375,18.3007812 C12.7473963,18.4596362 12.9049468,18.6132805 13.1210938,18.7617188 C13.3372407,18.910157 13.8489543,19.1770814 14.65625,19.5625 C15.7239637,20.0729192 16.4557272,20.5846329 16.8515625,21.0976562 C17.2473978,21.6106796 17.4453125,22.2395796 17.4453125,22.984375 Z M27.390625,26.15625 L25.0078125,26.15625 L25.0078125,21.0546875 C25.0078125,19.7942645 24.5390672,19.1640625 23.6015625,19.1640625 C22.9348925,19.1640625 22.4531265,19.3906227 22.15625,19.84375 C21.8593735,20.2968773 21.7109375,21.0312449 21.7109375,22.046875 L21.7109375,26.15625 L19.328125,26.15625 L19.328125,14 L21.7109375,14 L21.7109375,16.4765625 C21.7109375,16.6692718 21.6927085,17.1223923 21.65625,17.8359375 L21.6015625,18.5390625 L21.7265625,18.5390625 C22.2578152,17.6848916 23.1015567,17.2578125 24.2578125,17.2578125 C25.2838593,17.2578125 26.0624973,17.5338514 26.59375,18.0859375 C27.1250027,18.6380236 27.390625,19.4296823 27.390625,20.4609375 L27.390625,26.15625 Z M31.7421875,21.7734375 C31.7421875,22.6380252 31.8841132,23.2916645 32.1679688,23.734375 C32.4518243,24.1770855 32.9140593,24.3984375 33.5546875,24.3984375 C34.1901073,24.3984375 34.647134,24.1783876 34.9257812,23.7382812 C35.2044285,23.2981749 35.34375,22.6432335 35.34375,21.7734375 C35.34375,20.9088498 35.2031264,20.2604188 34.921875,19.828125 C34.6406236,19.3958312 34.1796907,19.1796875 33.5390625,19.1796875 C32.9036427,19.1796875 32.4453139,19.3945291 32.1640625,19.8242188 C31.8828111,20.2539084 31.7421875,20.9036415 31.7421875,21.7734375 Z M37.78125,21.7734375 C37.78125,23.1953196 37.4062537,24.3072877 36.65625,25.109375 C35.9062463,25.9114623 34.8619859,26.3125 33.5234375,26.3125 C32.6848916,26.3125 31.9453157,26.1289081 31.3046875,25.7617188 C30.6640593,25.3945294 30.1718767,24.8671909 29.828125,24.1796875 C29.4843733,23.4921841 29.3125,22.6901088 29.3125,21.7734375 C29.3125,20.346347 29.6848921,19.2369831 30.4296875,18.4453125 C31.1744829,17.6536419 32.2213474,17.2578125 33.5703125,17.2578125 C34.4088584,17.2578125 35.1484343,17.4401023 35.7890625,17.8046875 C36.4296907,18.1692727 36.9218733,18.6927049 37.265625,19.375 C37.6093767,20.0572951 37.78125,20.8567662 37.78125,21.7734375 Z M44.546875,26.3125 C43.5208282,26.3125 42.7161488,25.9401079 42.1328125,25.1953125 L42.0078125,25.1953125 C42.0911463,25.9244828 42.1328125,26.3463536 42.1328125,26.4609375 L42.1328125,30 L39.75,30 L39.75,17.421875 L41.6875,17.421875 L42.0234375,18.5546875 L42.1328125,18.5546875 C42.690107,17.6900998 43.5156195,17.2578125 44.609375,17.2578125 C45.6406302,17.2578125 46.4479138,17.656246 47.03125,18.453125 C47.6145863,19.250004 47.90625,20.3567637 47.90625,21.7734375 C47.90625,22.7057338 47.7695326,23.5156216 47.4960938,24.203125 C47.2226549,24.8906284 46.8333359,25.4140607 46.328125,25.7734375 C45.8229141,26.1328143 45.2291701,26.3125 44.546875,26.3125 Z M43.84375,19.1640625 C43.2552054,19.1640625 42.8255222,19.3450503 42.5546875,19.7070312 C42.2838528,20.0690122 42.1432292,20.6666625 42.1328125,21.5 L42.1328125,21.7578125 C42.1328125,22.6953172 42.272134,23.3671855 42.5507812,23.7734375 C42.8294285,24.1796895 43.2708303,24.3828125 43.875,24.3828125 C44.9427137,24.3828125 45.4765625,23.502613 45.4765625,21.7421875 C45.4765625,20.8828082 45.3450534,20.2382834 45.0820312,19.8085938 C44.8190091,19.3789041 44.4062528,19.1640625 43.84375,19.1640625 Z M55.421875,26.15625 L54.9609375,24.96875 L54.8984375,24.96875 C54.4973938,25.4739609 54.0846375,25.8242178 53.6601562,26.0195312 C53.235675,26.2148447 52.6822951,26.3125 52,26.3125 C51.1614541,26.3125 50.5013045,26.0729191 50.0195312,25.59375 C49.537758,25.1145809 49.296875,24.4322961 49.296875,23.546875 C49.296875,22.619787 49.6210905,21.9362001 50.2695312,21.4960938 C50.917972,21.0559874 51.8958268,20.8125002 53.203125,20.765625 L54.71875,20.71875 L54.71875,20.3359375 C54.71875,19.4505164 54.2656295,19.0078125 53.359375,19.0078125 C52.6614548,19.0078125 51.8411505,19.2187479 50.8984375,19.640625 L50.109375,18.03125 C51.1145884,17.5052057 52.2291605,17.2421875 53.453125,17.2421875 C54.6250059,17.2421875 55.5234344,17.4973933 56.1484375,18.0078125 C56.7734406,18.5182317 57.0859375,19.2942656 57.0859375,20.3359375 L57.0859375,26.15625 L55.421875,26.15625 Z M54.71875,22.109375 L53.796875,22.140625 C53.1041632,22.1614584 52.5885434,22.2864572 52.25,22.515625 C51.9114566,22.7447928 51.7421875,23.0937477 51.7421875,23.5625 C51.7421875,24.2343784 52.1276003,24.5703125 52.8984375,24.5703125 C53.4505236,24.5703125 53.8919254,24.4114599 54.2226562,24.09375 C54.5533871,23.7760401 54.71875,23.3541693 54.71875,22.828125 L54.71875,22.109375 Z M67.6015625,26.15625 L65.21875,26.15625 L65.21875,21.0546875 C65.21875,20.424476 65.106772,19.9518245 64.8828125,19.6367188 C64.658853,19.321613 64.3020858,19.1640625 63.8125,19.1640625 C63.14583,19.1640625 62.664064,19.3867165 62.3671875,19.8320312 C62.070311,20.277346 61.921875,21.0156198 61.921875,22.046875 L61.921875,26.15625 L59.5390625,26.15625 L59.5390625,17.421875 L61.359375,17.421875 L61.6796875,18.5390625 L61.8125,18.5390625 C62.0781263,18.1171854 62.4440081,17.7981782 62.9101563,17.5820312 C63.3763044,17.3658843 63.906247,17.2578125 64.5,17.2578125 C65.5156301,17.2578125 66.2864557,17.5325493 66.8125,18.0820312 C67.3385443,18.6315132 67.6015625,19.424474 67.6015625,20.4609375 L67.6015625,26.15625 Z M75.6015625,26.15625 L75.140625,24.96875 L75.078125,24.96875 C74.6770813,25.4739609 74.264325,25.8242178 73.8398438,26.0195312 C73.4153625,26.2148447 72.8619826,26.3125 72.1796875,26.3125 C71.3411416,26.3125 70.680992,26.0729191 70.1992188,25.59375 C69.7174455,25.1145809 69.4765625,24.4322961 69.4765625,23.546875 C69.4765625,22.619787 69.800778,21.9362001 70.4492188,21.4960938 C71.0976595,21.0559874 72.0755143,20.8125002 73.3828125,20.765625 L74.8984375,20.71875 L74.8984375,20.3359375 C74.8984375,19.4505164 74.445317,19.0078125 73.5390625,19.0078125 C72.8411423,19.0078125 72.020838,19.2187479 71.078125,19.640625 L70.2890625,18.03125 C71.2942759,17.5052057 72.408848,17.2421875 73.6328125,17.2421875 C74.8046934,17.2421875 75.7031219,17.4973933 76.328125,18.0078125 C76.9531281,18.5182317 77.265625,19.2942656 77.265625,20.3359375 L77.265625,26.15625 L75.6015625,26.15625 Z M74.8984375,22.109375 L73.9765625,22.140625 C73.2838507,22.1614584 72.7682309,22.2864572 72.4296875,22.515625 C72.0911441,22.7447928 71.921875,23.0937477 71.921875,23.5625 C71.921875,24.2343784 72.3072878,24.5703125 73.078125,24.5703125 C73.6302111,24.5703125 74.0716129,24.4114599 74.4023438,24.09375 C74.7330746,23.7760401 74.8984375,23.3541693 74.8984375,22.828125 L74.8984375,22.109375 Z M82.1015625,26.15625 L79.71875,26.15625 L79.71875,14 L82.1015625,14 L82.1015625,26.15625 Z M83.3515625,17.421875 L85.9609375,17.421875 L87.609375,22.3359375 C87.7500007,22.763023 87.8463539,23.2682263 87.8984375,23.8515625 L87.9453125,23.8515625 C88.0026045,23.3151015 88.1145825,22.8098982 88.28125,22.3359375 L89.8984375,17.421875 L92.453125,17.421875 L88.7578125,27.2734375 C88.4192691,28.1849004 87.9362011,28.8671852 87.3085938,29.3203125 C86.6809864,29.7734398 85.9479209,30 85.109375,30 C84.6979146,30 84.2942728,29.9557296 83.8984375,29.8671875 L83.8984375,27.9765625 C84.1848973,28.0442712 84.4973941,28.078125 84.8359375,28.078125 C85.2578146,28.078125 85.6263005,27.94922 85.9414062,27.6914062 C86.256512,27.4335925 86.5026033,27.0442734 86.6796875,26.5234375 L86.8203125,26.09375 L83.3515625,17.421875 Z M99.796875,23.5625 C99.796875,24.4583378 99.4856802,25.1406227 98.8632812,25.609375 C98.2408823,26.0781273 97.309902,26.3125 96.0703125,26.3125 C95.4348927,26.3125 94.8932314,26.2695317 94.4453125,26.1835938 C93.9973936,26.0976558 93.578127,25.971355 93.1875,25.8046875 L93.1875,23.8359375 C93.6302105,24.0442719 94.1289035,24.2187493 94.6835938,24.359375 C95.238284,24.5000007 95.7265604,24.5703125 96.1484375,24.5703125 C97.0130252,24.5703125 97.4453125,24.320315 97.4453125,23.8203125 C97.4453125,23.6328116 97.3880214,23.4804693 97.2734375,23.3632812 C97.1588536,23.2460932 96.9609389,23.113282 96.6796875,22.9648438 C96.3984361,22.8164055 96.0234398,22.6432302 95.5546875,22.4453125 C94.8828091,22.1640611 94.3893245,21.903647 94.0742188,21.6640625 C93.759113,21.424478 93.5299486,21.1497411 93.3867188,20.8398438 C93.2434889,20.5299464 93.171875,20.1484398 93.171875,19.6953125 C93.171875,18.919267 93.4726532,18.3190125 94.0742188,17.8945312 C94.6757843,17.47005 95.5286403,17.2578125 96.6328125,17.2578125 C97.6849011,17.2578125 98.7083284,17.4869769 99.703125,17.9453125 L98.984375,19.6640625 C98.5468728,19.4765616 98.1380227,19.3229173 97.7578125,19.203125 C97.3776023,19.0833327 96.9895853,19.0234375 96.59375,19.0234375 C95.8906215,19.0234375 95.5390625,19.2135398 95.5390625,19.59375 C95.5390625,19.8072927 95.6523426,19.9921867 95.8789062,20.1484375 C96.1054699,20.3046883 96.6015587,20.5364568 97.3671875,20.84375 C98.0494826,21.119793 98.5494776,21.377603 98.8671875,21.6171875 C99.1848974,21.856772 99.4192701,22.1328109 99.5703125,22.4453125 C99.7213549,22.7578141 99.796875,23.1302062 99.796875,23.5625 Z M105.335938,24.4140625 C105.752606,24.4140625 106.252601,24.3229176 106.835938,24.140625 L106.835938,25.9140625 C106.242185,26.1796888 105.513025,26.3125 104.648438,26.3125 C103.695308,26.3125 103.001304,26.071617 102.566406,25.5898438 C102.131508,25.1080705 101.914062,24.3854215 101.914062,23.421875 L101.914062,19.2109375 L100.773438,19.2109375 L100.773438,18.203125 L102.085938,17.40625 L102.773438,15.5625 L104.296875,15.5625 L104.296875,17.421875 L106.742188,17.421875 L106.742188,19.2109375 L104.296875,19.2109375 L104.296875,23.421875 C104.296875,23.7604184 104.391926,24.0104159 104.582031,24.171875 C104.772136,24.3333341 105.023436,24.4140625 105.335938,24.4140625 Z" id="Shopanalyst"></path>
        </g>
    </g>
</svg>