<svg xmlns="http://www.w3.org/2000/svg" viewBox="0 0 253.05 301.17"><defs><style>.cls-1{fill:#e1f0e0;}.cls-2{fill:#f8f7f0;}.cls-3{fill:none;stroke:#afafa1;stroke-linejoin:round;stroke-width:5px;}</style></defs><title>logo</title><g id="Layer_2" data-name="Layer 2"><g id="Green_shadow" data-name="Green shadow"><path class="cls-1" d="M250.55,197.49l-94.09,54.32c0-49.38-59.87-83.95-59.87-83.95C36.72,133.3,36.72,83.91,36.72,83.91A34.83,34.83,0,0,1,37.38,78c6.88,1.73,15.13,5.15,25,10.85,59.87,34.57,59.87,83.95,59.87,83.95l84.37-48.71C250.55,157.33,250.55,197.49,250.55,197.49Z"/><path class="cls-1" d="M122.25,271.57a34.33,34.33,0,0,1-.67,5.91l-.08,0c-6.86-1.74-15.08-5.16-24.91-10.83-59.87-34.57-59.87-84-59.87-84l9.71-5.61a152.1,152.1,0,0,0,16,10.55C122.25,222.19,122.25,271.57,122.25,271.57Z"/><path class="cls-2" d="M206.62,124.09,122.25,172.8s0-49.38-59.87-83.95c-9.87-5.7-18.12-9.12-25-10.85-9.5-2.39-16.42-1.57-21.44.88L141.72,6.27c8.33-5.69,23-6.46,49,8.51,59.87,34.57,59.87,84,59.87,84Z"/><path class="cls-2" d="M46.43,177.07C2.5,143.84,2.5,103.67,2.5,103.67s0-15.89,10.92-23.33l2.52-1.46c5-2.45,11.94-3.27,21.44-.88a34.83,34.83,0,0,0-.66,5.91s0,49.39,59.87,83.95c0,0,59.87,34.57,59.87,83.95l94.09-54.32s0,15.88-10.92,23.33l-128.3,74.07c6.62-4.51,9.23-12.12,10.25-17.41a34.33,34.33,0,0,0,.67-5.91s0-49.38-59.87-84A152.1,152.1,0,0,1,46.43,177.07Z"/><path class="cls-2" d="M121.5,277.46l.08,0c-1,5.29-3.63,12.9-10.25,17.41-8.34,5.69-23,6.45-48.95-8.51-59.88-34.57-59.88-84-59.88-84l34.22-19.75s0,49.38,59.87,84C106.42,272.3,114.64,275.72,121.5,277.46Z"/><path class="cls-3" d="M206.61,124.08h0c43.93,33.24,43.93,73.4,43.93,73.4s0,15.88-10.92,23.33l-128.3,74.07"/><path class="cls-3" d="M141.72,6.27c8.33-5.69,23-6.46,49,8.51,59.87,34.57,59.87,84,59.87,84l-43.93,25.36L122.25,172.8s0-49.38-59.87-83.95c-9.87-5.7-18.12-9.12-25-10.85-9.5-2.39-16.42-1.57-21.44.88a20.5,20.5,0,0,0-2.52,1.46C2.5,87.78,2.5,103.67,2.5,103.67s0,40.17,43.93,73.4a152.1,152.1,0,0,0,16,10.55c59.87,34.57,59.87,84,59.87,84a34.33,34.33,0,0,1-.67,5.91c-1,5.29-3.63,12.9-10.25,17.41-8.34,5.69-23,6.45-48.95-8.51-59.88-34.57-59.88-84-59.88-84l34.22-19.75,9.71-5.61.23-.13"/><polyline class="cls-3" points="13.42 80.34 15.94 78.88 141.72 6.27"/></g></g></svg>