<svg xmlns="http://www.w3.org/2000/svg" viewBox="0 0 251.05 298.96"><defs><style>.cls-1{fill:#f0efe9;}.cls-2{fill:#f8f7f0;}.cls-3,.cls-4{fill:none;stroke-linejoin:round;stroke-width:3px;}.cls-3{stroke:#afafa1;stroke-linecap:round;}.cls-4{stroke:#717975;}</style></defs><title>logo</title><g id="Layer_2" data-name="Layer 2"><g id="Shadow"><path class="cls-1" d="M121.25,270.37a34.17,34.17,0,0,1-.67,5.9c-6.88-1.73-15.12-5.15-25-10.84-59.37-34.28-59.87-83.13-59.87-84h0l9.7-5.6a152.81,152.81,0,0,0,16,10.55C121.25,221,121.25,270.37,121.25,270.37Z"/><path class="cls-1" d="M148.71,76.73l0,0L54.58,131.09C35.72,105.58,35.72,82.71,35.72,82.71a34.46,34.46,0,0,1,.66-5.88v0A84.12,84.12,0,0,1,52.68,83l78.26-45.18.05.08A107.12,107.12,0,0,0,148.71,76.73Z"/><path class="cls-2" d="M120.58,276.27c-1,5.29-3.63,12.91-10.25,17.42-8.34,5.69-23,6.45-48.95-8.51-59.88-34.57-59.88-84-59.88-84l34.22-19.75c0,.82.5,49.67,59.87,84C105.46,271.12,113.7,274.54,120.58,276.27Z"/><path class="cls-2" d="M181,8.93l-50,28.89L52.68,83a84.12,84.12,0,0,0-16.29-6.19c-9.51-2.4-16.42-1.58-21.45.87L140.72,5.07A26,26,0,0,1,154.48,1.5C161.26,1.5,169.9,3.51,181,8.93Z"/><path class="cls-2" d="M54.58,131.09l94.09-54.33,0,0c1.85,2.55,3.88,5.1,6.09,7.61a137.51,137.51,0,0,0,34.88,28c59.87,34.57,59.87,83.95,59.87,83.95s0,15.87-10.92,23.33h0l-2.58,1.5L110.33,293.69c6.62-4.51,9.23-12.13,10.25-17.42a34.17,34.17,0,0,0,.67-5.9s0-49.38-59.87-84a152.81,152.81,0,0,1-16-10.55C1.5,142.63,1.5,102.47,1.5,102.47s0-15.89,10.92-23.33l2.52-1.46c5-2.45,11.94-3.27,21.45-.87v0a34.46,34.46,0,0,0-.66,5.88S35.72,105.58,54.58,131.09Z"/><line class="cls-3" x1="18.61" y1="92.59" x2="42.49" y2="78.8"/><line class="cls-3" x1="29.22" y1="126.35" x2="123.31" y2="72.03"/><line class="cls-3" x1="46.82" y1="155.33" x2="140.91" y2="101.01"/><line class="cls-3" x1="78.4" y1="176.46" x2="172.48" y2="122.14"/><line class="cls-3" x1="108.84" y1="198.68" x2="202.92" y2="144.36"/><line class="cls-3" x1="128.28" y1="227.15" x2="222.36" y2="172.82"/><line class="cls-3" x1="138.23" y1="260.5" x2="232.32" y2="206.17"/><polyline class="cls-4" points="110.33 293.69 236.04 221.12 238.62 219.62"/><path class="cls-4" d="M236,221.12a20.25,20.25,0,0,0,2.58-1.5h0c10.92-7.46,10.92-23.33,10.92-23.33s0-49.38-59.87-83.95a137.51,137.51,0,0,1-34.88-28c-2.21-2.51-4.24-5.06-6.09-7.61A107.12,107.12,0,0,1,131,37.9"/><polyline class="cls-4" points="35.72 181.47 45.42 175.87 45.62 175.76"/><path class="cls-4" d="M12.42,79.14l2.52-1.46L140.72,5.07A26,26,0,0,1,154.48,1.5c6.78,0,15.42,2,26.5,7.43l-50,28.89L52.68,83a84.12,84.12,0,0,0-16.29-6.19c-9.51-2.4-16.42-1.58-21.45.87a20.5,20.5,0,0,0-2.52,1.46C1.5,86.58,1.5,102.47,1.5,102.47s0,40.16,43.92,73.4a152.81,152.81,0,0,0,16,10.55c59.87,34.57,59.87,84,59.87,84a34.17,34.17,0,0,1-.67,5.9c-1,5.29-3.63,12.91-10.25,17.42-8.34,5.69-23,6.45-48.95-8.51-59.88-34.57-59.88-84-59.88-84l34.22-19.75"/></g></g></svg>