<svg xmlns="http://www.w3.org/2000/svg" viewBox="0 0 254.05 346.74"><defs><style>.cls-1{fill:#f0efe9;}.cls-2,.cls-5{fill:#f8f7f0;}.cls-3,.cls-4{fill:none;}.cls-3,.cls-5{stroke:#afafa1;}.cls-3,.cls-4,.cls-5{stroke-linecap:round;stroke-linejoin:round;stroke-width:6px;}.cls-4{stroke:#717975;}</style></defs><title>settings</title><g id="Layer_2" data-name="Layer 2"><g id="Layer_15" data-name="Layer 15"><polygon class="cls-1" points="251.05 220.28 251.05 269.67 122.75 343.74 122.75 294.36 251.05 220.28"/><polygon class="cls-1" points="251.05 170.9 251.05 220.28 122.75 294.36 122.75 244.98 251.05 170.9"/><polygon class="cls-1" points="251.05 121.52 251.05 170.9 122.75 244.98 122.75 195.59 251.05 121.52"/><polygon class="cls-1" points="251.05 72.14 251.05 121.52 122.75 195.59 122.75 146.21 251.05 72.14"/><polygon class="cls-2" points="251.05 72.14 122.75 146.21 3 77.07 131.3 3 251.05 72.14"/><polygon class="cls-1" points="122.75 294.36 122.75 343.74 3 274.6 3 77.07 122.75 146.21 122.75 195.59 122.75 244.98 122.75 294.36"/><line class="cls-3" x1="233.94" y1="131.4" x2="139.86" y2="185.72"/><line class="cls-3" x1="233.94" y1="180.78" x2="139.86" y2="235.1"/><line class="cls-3" x1="233.94" y1="230.16" x2="139.86" y2="284.48"/><polygon class="cls-4" points="3 77.07 3 274.6 122.75 343.74 251.05 269.67 251.05 220.28 251.05 170.9 251.05 121.52 251.05 72.14 131.3 3 3 77.07"/><path class="cls-4" d="M3,77.07"/><path class="cls-4" d="M122.75,146.21"/><path class="cls-4" d="M251.05,72.14"/><polygon class="cls-5" points="174.07 136.33 174.07 146.21 199.73 131.4 199.73 121.52 174.07 136.33"/><polygon class="cls-5" points="174.07 185.72 174.07 195.59 199.73 180.78 199.73 170.9 174.07 185.72"/><polygon class="cls-5" points="174.07 235.1 174.07 244.97 199.73 230.16 199.73 220.28 174.07 235.1"/><polygon class="cls-5" points="174.07 284.48 174.07 294.36 199.73 279.54 199.73 269.67 174.07 284.48"/></g></g></svg>