<svg xmlns="http://www.w3.org/2000/svg" viewBox="0 0 251.05 343.74"><defs><style>.cls-1{fill:#f0efe9;}.cls-2{fill:#f8f7f0;}.cls-3{fill:#afafa1;}.cls-4{fill:#717975;}.cls-5{fill:none;stroke:#717975;stroke-linecap:round;stroke-linejoin:round;stroke-width:3px;}</style></defs><title>settings-thin</title><g id="Layer_2" data-name="Layer 2"><g id="Layer_19" data-name="Layer 19"><polygon class="cls-1" points="249.55 218.78 249.55 268.17 121.25 342.24 121.25 292.86 249.55 218.78"/><polygon class="cls-1" points="249.55 169.4 249.55 218.78 121.25 292.86 121.25 243.48 249.55 169.4"/><polygon class="cls-1" points="249.55 120.02 249.55 169.4 121.25 243.48 121.25 194.09 249.55 120.02"/><polygon class="cls-1" points="249.55 70.64 249.55 120.02 121.25 194.09 121.25 144.71 249.55 70.64"/><polygon class="cls-2" points="249.55 70.64 121.25 144.71 1.5 75.57 129.8 1.5 249.55 70.64"/><polygon class="cls-1" points="121.25 292.86 121.25 342.24 1.5 273.1 1.5 75.57 121.25 144.71 121.25 194.09 121.25 243.48 121.25 292.86"/><path class="cls-3" d="M138.36,185.72a1.5,1.5,0,0,1-.75-2.8l94.09-54.32a1.5,1.5,0,0,1,1.5,2.6l-94.09,54.32A1.49,1.49,0,0,1,138.36,185.72Z"/><path class="cls-3" d="M138.36,235.1a1.5,1.5,0,0,1-.75-2.8L231.69,178a1.5,1.5,0,0,1,1.5,2.6L139.11,234.9A1.49,1.49,0,0,1,138.36,235.1Z"/><path class="cls-3" d="M138.36,284.48a1.5,1.5,0,0,1-.75-2.8l94.09-54.32a1.5,1.5,0,0,1,1.5,2.6l-94.09,54.32A1.49,1.49,0,0,1,138.36,284.48Z"/><path class="cls-4" d="M121.25,343.74a1.5,1.5,0,0,1-.75-.2L.75,274.4A1.5,1.5,0,0,1,0,273.1V75.57a1.5,1.5,0,0,1,.75-1.3L129,.2a1.5,1.5,0,0,1,1.5,0L250.3,69.34a1.5,1.5,0,0,1,.75,1.3V268.17a1.5,1.5,0,0,1-.75,1.3L122,343.54A1.5,1.5,0,0,1,121.25,343.74ZM3,272.23l118.25,68.27L248,267.3V71.51L129.8,3.23,3,76.44Z"/><path class="cls-5" d="M1.5,75.57"/><path class="cls-5" d="M121.25,144.71"/><path class="cls-5" d="M249.55,70.64"/><polygon class="cls-2" points="172.57 134.83 172.57 144.71 198.23 129.9 198.23 120.02 172.57 134.83"/><path class="cls-3" d="M172.57,146.21a1.5,1.5,0,0,1-1.5-1.5v-9.88a1.5,1.5,0,0,1,.75-1.3l25.66-14.81a1.5,1.5,0,0,1,2.25,1.3v9.88a1.5,1.5,0,0,1-.75,1.3L173.32,146A1.5,1.5,0,0,1,172.57,146.21Zm1.5-10.51v6.41L196.73,129v-6.41Z"/><polygon class="cls-2" points="172.57 184.22 172.57 194.09 198.23 179.28 198.23 169.4 172.57 184.22"/><path class="cls-3" d="M172.57,195.59a1.5,1.5,0,0,1-1.5-1.5v-9.88a1.5,1.5,0,0,1,.75-1.3l25.66-14.81a1.5,1.5,0,0,1,2.25,1.3v9.88a1.5,1.5,0,0,1-.75,1.3l-25.66,14.81A1.5,1.5,0,0,1,172.57,195.59Zm1.5-10.51v6.41l22.66-13.08V172Z"/><polygon class="cls-2" points="172.57 233.6 172.57 243.47 198.23 228.66 198.23 218.78 172.57 233.6"/><path class="cls-3" d="M172.57,245a1.5,1.5,0,0,1-1.5-1.5V233.6a1.5,1.5,0,0,1,.75-1.3l25.66-14.81a1.5,1.5,0,0,1,2.25,1.3v9.88A1.5,1.5,0,0,1,199,230l-25.66,14.82A1.5,1.5,0,0,1,172.57,245Zm1.5-10.51v6.41l22.66-13.08v-6.41Z"/><polygon class="cls-2" points="172.57 282.98 172.57 292.86 198.23 278.04 198.23 268.17 172.57 282.98"/><path class="cls-3" d="M172.57,294.36a1.5,1.5,0,0,1-1.5-1.5V283a1.5,1.5,0,0,1,.75-1.3l25.66-14.81a1.5,1.5,0,0,1,2.25,1.3V278a1.5,1.5,0,0,1-.75,1.3l-25.66,14.81A1.5,1.5,0,0,1,172.57,294.36Zm1.5-10.51v6.41l22.66-13.08v-6.41Z"/></g></g></svg>