<svg xmlns="http://www.w3.org/2000/svg" viewBox="0 0 251.05 343.74"><defs><style>.cls-1{fill:#f0efe9;}.cls-2,.cls-5{fill:#f8f7f0;}.cls-3,.cls-4{fill:none;}.cls-3,.cls-5{stroke:#afafa1;}.cls-3,.cls-4,.cls-5{stroke-linecap:round;stroke-linejoin:round;stroke-width:3px;}.cls-4{stroke:#717975;}</style></defs><title>settings</title><g id="Layer_2" data-name="Layer 2"><g id="Layer_15" data-name="Layer 15"><polygon class="cls-1" points="249.55 218.78 249.55 268.17 121.25 342.24 121.25 292.86 249.55 218.78"/><polygon class="cls-1" points="249.55 169.4 249.55 218.78 121.25 292.86 121.25 243.48 249.55 169.4"/><polygon class="cls-1" points="249.55 120.02 249.55 169.4 121.25 243.48 121.25 194.09 249.55 120.02"/><polygon class="cls-1" points="249.55 70.64 249.55 120.02 121.25 194.09 121.25 144.71 249.55 70.64"/><polygon class="cls-2" points="249.55 70.64 121.25 144.71 1.5 75.57 129.8 1.5 249.55 70.64"/><polygon class="cls-1" points="121.25 292.86 121.25 342.24 1.5 273.1 1.5 75.57 121.25 144.71 121.25 194.09 121.25 243.48 121.25 292.86"/><line class="cls-3" x1="232.44" y1="129.9" x2="138.36" y2="184.22"/><line class="cls-3" x1="232.44" y1="179.28" x2="138.36" y2="233.6"/><line class="cls-3" x1="232.44" y1="228.66" x2="138.36" y2="282.98"/><polygon class="cls-4" points="1.5 75.57 1.5 273.1 121.25 342.24 249.55 268.17 249.55 218.78 249.55 169.4 249.55 120.02 249.55 70.64 129.8 1.5 1.5 75.57"/><path class="cls-4" d="M1.5,75.57"/><path class="cls-4" d="M121.25,144.71"/><path class="cls-4" d="M249.55,70.64"/><polygon class="cls-5" points="172.57 134.83 172.57 144.71 198.23 129.9 198.23 120.02 172.57 134.83"/><polygon class="cls-5" points="172.57 184.22 172.57 194.09 198.23 179.28 198.23 169.4 172.57 184.22"/><polygon class="cls-5" points="172.57 233.6 172.57 243.47 198.23 228.66 198.23 218.78 172.57 233.6"/><polygon class="cls-5" points="172.57 282.98 172.57 292.86 198.23 278.04 198.23 268.17 172.57 282.98"/></g></g></svg>