<svg xmlns="http://www.w3.org/2000/svg" viewBox="0 0 254.05 346.74"><defs><style>.cls-1{fill:#f8f7f0;}.cls-2{fill:#f0efe9;}.cls-3{fill:#afafa1;}.cls-4{fill:#717975;}</style></defs><title>settings</title><g id="Layer_2" data-name="Layer 2"><g id="Layer_18" data-name="Layer 18"><polygon class="cls-1" points="6 78.8 6 78.8 122.75 146.21 248.05 73.87 248.05 73.87 131.3 6.46 6 78.8"/><path class="cls-2" d="M6,78.8V272.87l116.75,67.41h0L248,267.94V73.87l-125.3,72.34ZM202.73,279.54a3,3,0,0,1-1.5,2.6L175.57,297a3,3,0,0,1-4.5-2.6v-9.88a3,3,0,0,1,1.5-2.6l25.66-14.81a3,3,0,0,1,4.5,2.6Zm32.71-46.78-94.09,54.32a3,3,0,0,1-4.1-1.1h0a3,3,0,0,1,1.1-4.1l94.09-54.32a3,3,0,0,1,4.1,1.1h0A3,3,0,0,1,235.44,232.76ZM171.07,245V235.1a3,3,0,0,1,1.5-2.6l25.66-14.81a3,3,0,0,1,4.5,2.6v9.88a3,3,0,0,1-1.5,2.6l-25.66,14.81a3,3,0,0,1-4.5-2.6Zm0-108.64a3,3,0,0,1,1.5-2.6l25.66-14.81a3,3,0,0,1,4.5,2.6v9.88a3,3,0,0,1-1.5,2.6l-25.66,14.81a3,3,0,0,1-4.5-2.6Zm-32.71,46.78,94.09-54.32a3,3,0,0,1,4.1,1.1h0a3,3,0,0,1-1.1,4.1l-94.09,54.32a3,3,0,0,1-4.1-1.1h0A3,3,0,0,1,138.36,183.12Zm64.37-12.22v9.88a3,3,0,0,1-1.5,2.6l-25.66,14.81a3,3,0,0,1-4.5-2.6v-9.88a3,3,0,0,1,1.5-2.6l25.66-14.81a3,3,0,0,1,4.5,2.6Zm-64.37,61.6,94.09-54.32a3,3,0,0,1,4.1,1.1h0a3,3,0,0,1-1.1,4.1L141.36,237.7a3,3,0,0,1-4.1-1.1h0A3,3,0,0,1,138.36,232.5Z"/><path class="cls-3" d="M137.26,187.22a3,3,0,0,0,4.1,1.1L235.44,134a3,3,0,0,0,1.1-4.1h0a3,3,0,0,0-4.1-1.1l-94.09,54.32a3,3,0,0,0-1.1,4.1Z"/><path class="cls-3" d="M137.26,236.6a3,3,0,0,0,4.1,1.1l94.09-54.32a3,3,0,0,0,1.1-4.1h0a3,3,0,0,0-4.1-1.1L138.36,232.5a3,3,0,0,0-1.1,4.1Z"/><path class="cls-3" d="M236.54,228.66a3,3,0,0,0-4.1-1.1l-94.09,54.32a3,3,0,0,0-1.1,4.1h0a3,3,0,0,0,4.1,1.1l94.09-54.32a3,3,0,0,0,1.1-4.1Z"/><path class="cls-4" d="M252.55,69.54,132.8.4a3,3,0,0,0-3,0L1.5,74.47A3,3,0,0,0,0,77.07V274.6a3,3,0,0,0,1.5,2.6l119.75,69.14a3,3,0,0,0,3,0l128.3-74.07a3,3,0,0,0,1.5-2.6V72.14A3,3,0,0,0,252.55,69.54ZM248,73.87V267.94l-125.3,72.34h0L6,272.87V78.8H6L131.3,6.46,248,73.87Z"/><polygon class="cls-1" points="196.73 126.72 177.07 138.07 177.07 141.01 196.73 129.66 196.73 126.72"/><path class="cls-3" d="M172.57,148.81a3,3,0,0,0,3,0L201.23,134a3,3,0,0,0,1.5-2.6v-9.88a3,3,0,0,0-4.5-2.6l-25.66,14.81a3,3,0,0,0-1.5,2.6v9.88A3,3,0,0,0,172.57,148.81Zm4.5-10.74,19.66-11.35v2.95L177.07,141Z"/><polygon class="cls-1" points="177.07 190.4 196.73 179.05 196.73 176.1 177.07 187.45 177.07 190.4"/><path class="cls-3" d="M198.23,168.3l-25.66,14.81a3,3,0,0,0-1.5,2.6v9.88a3,3,0,0,0,4.5,2.6l25.66-14.81a3,3,0,0,0,1.5-2.6V170.9a3,3,0,0,0-4.5-2.6ZM196.73,179,177.07,190.4v-2.95l19.66-11.35Z"/><polygon class="cls-1" points="196.73 225.48 177.07 236.83 177.07 239.78 196.73 228.43 196.73 225.48"/><path class="cls-3" d="M174.07,248a3,3,0,0,0,1.5-.4l25.66-14.81a3,3,0,0,0,1.5-2.6v-9.88a3,3,0,0,0-4.5-2.6L172.57,232.5a3,3,0,0,0-1.5,2.6V245a3,3,0,0,0,3,3Zm3-11.14,19.66-11.35v2.95l-19.66,11.35Z"/><polygon class="cls-1" points="177.07 289.16 196.73 277.81 196.73 274.86 177.07 286.21 177.07 289.16"/><path class="cls-3" d="M201.23,267.07a3,3,0,0,0-3,0l-25.66,14.81a3,3,0,0,0-1.5,2.6v9.88a3,3,0,0,0,4.5,2.6l25.66-14.81a3,3,0,0,0,1.5-2.6v-9.88A3,3,0,0,0,201.23,267.07Zm-4.5,10.74-19.66,11.35v-2.95l19.66-11.35Z"/></g></g></svg>