<svg xmlns="http://www.w3.org/2000/svg" viewBox="0 0 254.05 301.96"><defs><style>.cls-1{fill:#f0efe9;}.cls-2{fill:#f8f7f0;}.cls-3,.cls-4{fill:none;stroke-linecap:round;stroke-linejoin:round;stroke-width:6px;}.cls-3{stroke:#afafa1;}.cls-4{stroke:#717975;}</style></defs><title>shop</title><g id="Layer_2" data-name="Layer 2"><g id="Shadow"><path class="cls-1" d="M122.75,271.87a34.17,34.17,0,0,1-.67,5.9c-6.88-1.73-15.12-5.15-25-10.84-59.37-34.28-59.87-83.13-59.87-84h0l9.7-5.6a152.81,152.81,0,0,0,16,10.55C122.75,222.49,122.75,271.87,122.75,271.87Z"/><path class="cls-1" d="M150.21,78.23l0,0L56.08,132.59C37.22,107.08,37.22,84.21,37.22,84.21a34.46,34.46,0,0,1,.66-5.88v0A84.12,84.12,0,0,1,54.18,84.5l78.26-45.18.05.08A107.12,107.12,0,0,0,150.21,78.23Z"/><path class="cls-2" d="M122.08,277.77c-1,5.29-3.63,12.91-10.25,17.42-8.34,5.69-23,6.45-48.95-8.51C3,252.11,3,202.73,3,202.73L37.22,183c0,.82.5,49.67,59.87,84C107,272.62,115.2,276,122.08,277.77Z"/><path class="cls-2" d="M182.48,10.43l-50,28.89L54.18,84.5a84.12,84.12,0,0,0-16.29-6.19c-9.51-2.4-16.42-1.58-21.45.87L142.22,6.57A26,26,0,0,1,156,3C162.76,3,171.4,5,182.48,10.43Z"/><path class="cls-2" d="M56.08,132.59l94.09-54.33,0,0c1.85,2.55,3.88,5.1,6.09,7.61a137.51,137.51,0,0,0,34.88,28c59.87,34.57,59.87,83.95,59.87,83.95s0,15.87-10.92,23.33h0l-2.58,1.5L111.83,295.19c6.62-4.51,9.23-12.13,10.25-17.42a34.17,34.17,0,0,0,.67-5.9s0-49.38-59.87-84a152.81,152.81,0,0,1-16-10.55C3,144.13,3,104,3,104S3,88.08,13.92,80.64l2.52-1.46c5-2.45,11.94-3.27,21.45-.87v0a34.46,34.46,0,0,0-.66,5.88S37.22,107.08,56.08,132.59Z"/><line class="cls-3" x1="20.11" y1="94.09" x2="43.99" y2="80.3"/><line class="cls-3" x1="30.72" y1="127.85" x2="124.81" y2="73.53"/><line class="cls-3" x1="48.32" y1="156.83" x2="142.41" y2="102.51"/><line class="cls-3" x1="79.9" y1="177.96" x2="173.98" y2="123.64"/><line class="cls-3" x1="110.34" y1="200.18" x2="204.42" y2="145.86"/><line class="cls-3" x1="129.78" y1="228.65" x2="223.86" y2="174.32"/><line class="cls-3" x1="139.73" y1="262" x2="233.82" y2="207.67"/><polyline class="cls-4" points="111.83 295.19 237.54 222.62 240.12 221.12"/><path class="cls-4" d="M237.54,222.62a20.25,20.25,0,0,0,2.58-1.5h0c10.92-7.46,10.92-23.33,10.92-23.33s0-49.38-59.87-83.95a137.51,137.51,0,0,1-34.88-28c-2.21-2.51-4.24-5.06-6.09-7.61A107.12,107.12,0,0,1,132.49,39.4"/><polyline class="cls-4" points="37.22 182.97 46.92 177.37 47.12 177.26"/><path class="cls-4" d="M13.92,80.64l2.52-1.46L142.22,6.57A26,26,0,0,1,156,3c6.78,0,15.42,2,26.5,7.43l-50,28.89L54.18,84.5a84.12,84.12,0,0,0-16.29-6.19c-9.51-2.4-16.42-1.58-21.45.87a20.5,20.5,0,0,0-2.52,1.46C3,88.08,3,104,3,104s0,40.16,43.92,73.4a152.81,152.81,0,0,0,16,10.55c59.87,34.57,59.87,84,59.87,84a34.17,34.17,0,0,1-.67,5.9c-1,5.29-3.63,12.91-10.25,17.42-8.34,5.69-23,6.45-48.95-8.51C3,252.11,3,202.73,3,202.73L37.22,183"/></g></g></svg>