<svg xmlns="http://www.w3.org/2000/svg" viewBox="0 0 251.05 298.98"><defs><style>.cls-1{fill:#f0efe9;}.cls-2{fill:#f8f7f0;}.cls-3{fill:#afafa1;}.cls-4{fill:#717975;}</style></defs><title>shop-thin</title><g id="Layer_2" data-name="Layer 2"><g id="Layer_17" data-name="Layer 17"><path class="cls-1" d="M121.25,270.37a34.17,34.17,0,0,1-.67,5.9c-6.88-1.73-15.12-5.15-25-10.84-59.37-34.28-59.87-83.13-59.87-83.95h0l9.7-5.6a152.81,152.81,0,0,0,16,10.55C121.25,221,121.25,270.37,121.25,270.37Z"/><path class="cls-1" d="M148.71,76.73l0,0L54.58,131.09C35.72,105.58,35.72,82.71,35.72,82.71a34.46,34.46,0,0,1,.66-5.88v0A84.12,84.12,0,0,1,52.68,83l78.26-45.18.05.08A107.12,107.12,0,0,0,148.71,76.73Z"/><path class="cls-2" d="M120.58,276.27c-1,5.29-3.63,12.91-10.25,17.42-8.34,5.69-23,6.45-49-8.51C1.5,250.61,1.5,201.23,1.5,201.23l34.22-19.75c0,.82.5,49.67,59.87,83.95C105.46,271.12,113.7,274.54,120.58,276.27Z"/><path class="cls-2" d="M181,8.93l-50,28.89L52.68,83a84.12,84.12,0,0,0-16.29-6.19c-9.51-2.4-16.42-1.58-21.45.87L140.72,5.07A26,26,0,0,1,154.48,1.5C161.26,1.5,169.9,3.51,181,8.93Z"/><path class="cls-2" d="M54.58,131.09l94.09-54.33,0,0c1.85,2.55,3.88,5.1,6.09,7.61a137.51,137.51,0,0,0,34.88,28c59.87,34.57,59.87,83.95,59.87,83.95s0,15.87-10.92,23.33h0l-2.58,1.5L110.33,293.69c6.62-4.51,9.23-12.13,10.25-17.42a34.17,34.17,0,0,0,.67-5.9s0-49.38-59.87-83.95a152.81,152.81,0,0,1-16-10.55C1.5,142.63,1.5,102.47,1.5,102.47s0-15.89,10.92-23.33l2.52-1.46c5-2.45,11.94-3.27,21.45-.87v0a34.46,34.46,0,0,0-.66,5.88S35.72,105.58,54.58,131.09Z"/><path class="cls-3" d="M18.61,94.09a1.5,1.5,0,0,1-.75-2.8L41.74,77.5a1.5,1.5,0,1,1,1.5,2.6L19.36,93.89A1.49,1.49,0,0,1,18.61,94.09Z"/><path class="cls-3" d="M29.23,127.85a1.5,1.5,0,0,1-.75-2.8l94.09-54.32a1.5,1.5,0,0,1,1.5,2.6L30,127.65A1.49,1.49,0,0,1,29.23,127.85Z"/><path class="cls-3" d="M46.82,156.83a1.5,1.5,0,0,1-.75-2.8l94.09-54.32a1.5,1.5,0,0,1,1.5,2.6L47.57,156.63A1.49,1.49,0,0,1,46.82,156.83Z"/><path class="cls-3" d="M78.4,178a1.5,1.5,0,0,1-.75-2.8l94.09-54.32a1.5,1.5,0,1,1,1.5,2.6L79.15,177.76A1.49,1.49,0,0,1,78.4,178Z"/><path class="cls-3" d="M108.84,200.18a1.5,1.5,0,0,1-.75-2.8l94.09-54.32a1.5,1.5,0,1,1,1.5,2.6L109.59,200A1.49,1.49,0,0,1,108.84,200.18Z"/><path class="cls-3" d="M128.28,228.65a1.5,1.5,0,0,1-.75-2.8l94.09-54.32a1.5,1.5,0,1,1,1.5,2.6L129,228.44A1.49,1.49,0,0,1,128.28,228.65Z"/><path class="cls-3" d="M138.23,262a1.5,1.5,0,0,1-.75-2.8l94.09-54.32a1.5,1.5,0,1,1,1.5,2.6L139,261.79A1.49,1.49,0,0,1,138.23,262Z"/><path class="cls-4" d="M110.33,295.19a1.5,1.5,0,0,1-.75-2.8l125.71-72.57,2.58-1.5a1.5,1.5,0,1,1,1.51,2.59l-2.58,1.5L111.08,295A1.49,1.49,0,0,1,110.33,295.19Z"/><path class="cls-4" d="M236,222.62a1.5,1.5,0,0,1-.66-2.85,18.92,18.92,0,0,0,2.39-1.39l.11-.07c10.05-7,10.17-21.87,10.17-22s-.11-12.34-7.42-28.55c-6.75-15-21.19-36.49-51.7-54.1a139.73,139.73,0,0,1-35.25-28.31c-2.18-2.48-4.26-5.07-6.18-7.72a108.37,108.37,0,0,1-18-39.39,1.5,1.5,0,1,1,2.93-.65,105.34,105.34,0,0,0,17.47,38.27c1.87,2.57,3.89,5.1,6,7.5A136.75,136.75,0,0,0,190.43,111c31.27,18.06,46.09,40.22,53,55.62C251,183.43,251,195.77,251,196.29c0,.68-.13,16.69-11.51,24.52l-.2.13a21.92,21.92,0,0,1-2.64,1.52A1.49,1.49,0,0,1,236,222.62Z"/><path class="cls-4" d="M35.72,183a1.5,1.5,0,0,1-.75-2.8l9.93-5.73a1.5,1.5,0,1,1,1.44,2.63l-.2.11-9.67,5.58A1.49,1.49,0,0,1,35.72,183Z"/><path class="cls-4" d="M96.93,299c-9.74,0-21.88-4.17-36.3-12.5-17.26-10-40.48-27.71-53-55.62C.09,214.09,0,201.75,0,201.23a1.5,1.5,0,0,1,.75-1.3L35,180.18a1.5,1.5,0,1,1,1.5,2.6L3,202.08c.16,3,1.18,13.93,7.39,27.7,6.75,15,21.2,36.49,51.71,54.1,21.54,12.43,37.47,15.31,47.35,8.57,6.13-4.18,8.62-11.26,9.62-16.46a33.2,33.2,0,0,0,.64-5.62c0-.12-.11-12.34-7.42-28.55-6.75-15-21.19-36.49-51.7-54.1a155,155,0,0,1-16.12-10.65C.51,143.76,0,102.88,0,102.47c0-.68.13-16.76,11.56-24.56l0,0a22.11,22.11,0,0,1,2.65-1.54L140,3.77A27.72,27.72,0,0,1,154.48,0c7.74,0,16.87,2.55,27.16,7.58a1.5,1.5,0,0,1,.09,2.65L53.43,84.3a1.5,1.5,0,0,1-1.41,0,83.2,83.2,0,0,0-16-6.08c-8.22-2.08-15.08-1.83-20.38.74l-2.42,1.4C3.15,87.32,3,102.32,3,102.47c0,.39.57,39.84,43.33,72.2a152.1,152.1,0,0,0,15.8,10.45c17.26,10,40.47,27.71,53,55.62,7.53,16.77,7.62,29.11,7.62,29.63a35.48,35.48,0,0,1-.7,6.19c-1.11,5.76-3.9,13.62-10.88,18.37A24.68,24.68,0,0,1,96.93,299ZM25.84,73.88a44.81,44.81,0,0,1,10.91,1.48A84.92,84.92,0,0,1,52.62,81.3L177.75,9.06c-15.35-7-27.58-7.94-36.26-2.71L24.48,73.9Z"/></g></g></svg>