<svg xmlns="http://www.w3.org/2000/svg" viewBox="0 0 254.05 301.97"><defs><style>.cls-1{fill:#f0efe9;}.cls-2{fill:#f8f7f0;}.cls-3{fill:#afafa1;}.cls-4{fill:#717975;}</style></defs><title>shop</title><g id="Layer_2" data-name="Layer 2"><g id="Layer_15" data-name="Layer 15"><path class="cls-1" d="M61.38,190.52a157.55,157.55,0,0,1-14.65-9.57l-7.94,4.58-.07,0-1.27.74c1.22,11.66,9.08,51.42,59.65,80.62a107.65,107.65,0,0,0,22.09,10,32,32,0,0,0,.57-5.09c0-.11-.13-12.13-7.36-28.08C105.73,229.07,91.46,207.89,61.38,190.52Z"/><path class="cls-1" d="M45.84,115.66l77.47-44.73a3,3,0,0,1,3,5.2L48.6,121a107,107,0,0,0,7.48,11.6l91.53-52.85a110.74,110.74,0,0,1-17.1-35.84L55.68,87.1a3,3,0,0,1-2.82.1q-4.4-2.15-8.45-3.67l-7,4A87.13,87.13,0,0,0,45.84,115.66Z"/><path class="cls-2" d="M37.44,186.31,6.09,204.41a81.49,81.49,0,0,0,7.27,26.4c6.67,14.71,20.93,35.9,51,53.27C85.08,296,100.9,299,110.14,292.71c5.71-3.89,8-10.58,9-15.51l0-.24a107.65,107.65,0,0,1-22.09-10C46.52,237.73,38.66,198,37.44,186.31Z"/><path class="cls-2" d="M54.05,81.11,175.93,10.75C168.42,7.59,161.72,6,156,6a23,23,0,0,0-12.21,3.14L31.27,74.08a50.93,50.93,0,0,1,7.35,1.32A85.19,85.19,0,0,1,54.05,81.11Z"/><path class="cls-2" d="M189.68,116.44A141.23,141.23,0,0,1,154,87.82c-2.21-2.51-4.32-5.14-6.27-7.83l-.18-.25L56.08,132.59A107,107,0,0,1,48.6,121l-16.38,9.45a3,3,0,0,1-3-5.2l16.62-9.59a87.13,87.13,0,0,1-8.39-28.11L21.61,96.69a3,3,0,0,1-3-5.2l18-10.39c-7.6-1.83-13.91-1.6-18.77.73l-2.32,1.35C6.11,89.67,6,103.83,6,104s.1,9.86,5.4,23.44c4.83,12.36,15.09,30.48,36.56,47a3,3,0,0,1,1.67,1.25,151,151,0,0,0,14.76,9.69C96,203.58,111,226,118,241.63c7.66,17.06,7.75,29.71,7.75,30.24a37.14,37.14,0,0,1-.73,6.47,39,39,0,0,1-2,6.92L236,220l2.54-1.47c9.31-6.5,9.47-20.62,9.47-20.76s-.13-12.13-7.36-28.08C234,155,219.76,133.81,189.68,116.44Zm-139.86,43a3,3,0,1,1-3-5.2l94.09-54.32a3,3,0,0,1,3,5.2ZM81.4,180.56a3,3,0,1,1-3-5.2L172.48,121a3,3,0,1,1,3,5.2Zm30.44,22.22a3,3,0,1,1-3-5.2l94.09-54.32a3,3,0,0,1,3,5.2Zm17.94,28.87a3,3,0,0,1-1.5-5.6l94.09-54.32a3,3,0,0,1,3,5.2l-94.09,54.32A3,3,0,0,1,129.78,231.65Zm105.54-21.37-94.09,54.32a3,3,0,1,1-3-5.2l94.09-54.32a3,3,0,1,1,3,5.2Z"/><path class="cls-3" d="M17.51,95.59a3,3,0,0,0,4.1,1.1l15.84-9.14,7-4a66.52,66.52,0,0,0-7.25-2.3l-.55-.12-18,10.39A3,3,0,0,0,17.51,95.59Z"/><path class="cls-3" d="M127.41,72a3,3,0,0,0-4.1-1.1L45.84,115.66l-16.62,9.59a3,3,0,1,0,3,5.2L48.6,121l77.71-44.87A3,3,0,0,0,127.41,72Z"/><path class="cls-3" d="M145,101a3,3,0,0,0-4.1-1.1L46.82,154.24a3,3,0,1,0,3,5.2l94.09-54.32A3,3,0,0,0,145,101Z"/><path class="cls-3" d="M176.58,122.14a3,3,0,0,0-4.1-1.1L78.4,175.36a3,3,0,1,0,3,5.2l94.09-54.32A3,3,0,0,0,176.58,122.14Z"/><path class="cls-3" d="M207,144.36a3,3,0,0,0-4.1-1.1l-94.09,54.32a3,3,0,1,0,3,5.2l94.09-54.32A3,3,0,0,0,207,144.36Z"/><path class="cls-3" d="M226.46,172.83a3,3,0,0,0-4.1-1.1L128.28,226a3,3,0,1,0,3,5.2l94.09-54.32A3,3,0,0,0,226.46,172.83Z"/><path class="cls-3" d="M232.32,205.08,138.23,259.4a3,3,0,1,0,3,5.2l94.09-54.32a3,3,0,1,0-3-5.2Z"/><path class="cls-4" d="M192.68,111.24a135.24,135.24,0,0,1-34.13-27.38c-2.08-2.37-4.07-4.85-5.92-7.39A104.26,104.26,0,0,1,135.9,40.78L184,13a3,3,0,0,0-.18-5.29C173.31,2.6,163.95,0,156,0a29.17,29.17,0,0,0-15.26,4L15,76.53a23.59,23.59,0,0,0-2.77,1.61l-.05,0C.14,86.42,0,103.26,0,104c0,1.65.49,39.87,41.58,73l-5.86,3.38-.07.05L1.5,200.13a3,3,0,0,0-1.5,2.6c0,.53.09,13.18,7.75,30.24,7,15.61,22,38,53.63,56.31C76,297.73,88.43,302,98.46,302a26.16,26.16,0,0,0,14.87-4.18h0L239,225.22a23.53,23.53,0,0,0,2.59-1.5l.29-.19c12-8.28,12.13-25,12.13-25.74,0-.53-.09-13.18-7.75-30.24C239.29,151.94,224.3,129.5,192.68,111.24ZM143.77,9.14A23,23,0,0,1,156,6c5.74,0,12.44,1.59,20,4.75L54.05,81.11A85.19,85.19,0,0,0,38.62,75.4a50.93,50.93,0,0,0-7.35-1.32ZM119.18,277l0,.24c-1,4.93-3.28,11.62-9,15.51-9.24,6.3-25.06,3.32-45.76-8.63-30.09-17.37-44.35-38.56-51-53.27a81.49,81.49,0,0,1-7.27-26.4l31.35-18.1,1.27-.74.07,0,7.94-4.58a157.55,157.55,0,0,0,14.65,9.57c30.08,17.37,44.35,38.55,51,53.27,7.23,15.95,7.36,28,7.36,28.08A32,32,0,0,1,119.18,277Zm119.4-58.41L236,220,123,285.26a39,39,0,0,0,2-6.92,37.14,37.14,0,0,0,.73-6.47c0-.53-.09-13.18-7.75-30.24-7-15.61-22-38.05-53.62-56.31a151,151,0,0,1-14.76-9.69A3,3,0,0,0,48,174.38c-21.47-16.49-31.73-34.61-36.56-47C6.1,113.83,6,104.06,6,104s.11-14.3,9.52-20.79l2.32-1.35C22.7,79.5,29,79.27,36.61,81.1l.55.12a66.52,66.52,0,0,1,7.25,2.3q4,1.52,8.45,3.67a3,3,0,0,0,2.82-.1l74.83-43.2a110.74,110.74,0,0,0,17.1,35.84l.18.25c2,2.69,4.06,5.32,6.27,7.83a141.23,141.23,0,0,0,35.63,28.61c30.08,17.37,44.35,38.55,51,53.27,7.23,15.95,7.36,28,7.36,28.08S247.89,212,238.58,218.55Z"/></g></g></svg>