<?xml version="1.0" encoding="UTF-8"?>
<svg width="11px" height="10px" viewBox="0 0 11 10" version="1.1" xmlns="http://www.w3.org/2000/svg" xmlns:xlink="http://www.w3.org/1999/xlink">
    <!-- Generator: Sketch 48.2 (47327) - http://www.bohemiancoding.com/sketch -->
    <title>Group</title>
    <desc>Created with Sketch.</desc>
    <defs></defs>
    <g id="Sign-out" stroke="none" stroke-width="1" fill="none" fill-rule="evenodd" transform="translate(-1.000000, -1.000000)">
        <g id="Group" transform="translate(1.000000, 1.000000)" fill="currentColor">
            <path d="M2,0 L5,0 C5.66666667,0 6,0.333333333 6,1 C6,1.66666667 5.66666667,2 5,2 L3,2 C2.33333333,2 2,2.33333333 2,3 C2,3.66666667 2,5 2,7 C2,7.66666667 2.33333333,8 3,8 C3.66666667,8 4.33333333,8 5,8 C5.66666667,8 6,8.33333333 6,9 C6,9.66666667 5.66666667,10 5,10 L3,10 C1,10 0,9 0,7 C0,4 7.08986779e-17,3.4473291 0,2 C0,0.666666667 0.666666667,0 2,0 Z" id="Path-4"></path>
            <path d="M7.36363636,2.81818182 C7.36363636,1.72727273 7.36363636,1.72727273 8.45454545,2.81818182 L9.54545455,3.90909091 C10.6363636,5 10.6363636,5 9.54545455,6.09090909 L8.45454545,7.18181818 C7.36363636,8.27272727 7.36363636,8.27272727 7.36363636,7.18181818 C7.36363636,6.09090909 7.36363636,6.09090909 6.27272727,6.09090909 L4.09090909,6.09090909 C3.36363636,6.02851895 3,5.64928506 3,4.9532074 C3,4.25712974 3.36363636,3.90909091 4.09090909,3.90909091 L6.27272727,3.90909091 C7.36363636,3.90909091 7.36363636,3.90909091 7.36363636,2.81818182 Z" id="Path-8"></path>
        </g>
    </g>
</svg>
