<?xml version="1.0" encoding="UTF-8"?>
<svg width="24px" height="24px" viewBox="0 0 24 24" version="1.1" xmlns="http://www.w3.org/2000/svg" xmlns:xlink="http://www.w3.org/1999/xlink">
    <!-- Generator: Sketch 45.2 (43514) - http://www.bohemiancoding.com/sketch -->
    <title>Shape</title>
    <desc>Created with Sketch.</desc>
    <defs></defs>
    <g id="Symbols" stroke="none" stroke-width="1" fill="none" fill-rule="evenodd">
        <g id="Header" transform="translate(-286.000000, -9.000000)" fill-rule="nonzero" fill="#86C283">
            <path d="M294.4,20.7 C293.572,20.7 292.9,21.372 292.9,22.2 C292.9,23.028 293.572,23.7 294.4,23.7 C295.228,23.7 295.9,23.028 295.9,22.2 C295.9,21.372 295.228,20.7 294.4,20.7 Z M301.6,20.7 C300.772,20.7 300.1,21.372 300.1,22.2 C300.1,23.028 300.772,23.7 301.6,23.7 C302.428,23.7 303.1,23.028 303.1,22.2 C303.1,21.372 302.428,20.7 301.6,20.7 Z M298,9 C291.376,9 286,14.376 286,21 C286,27.624 291.376,33 298,33 C304.624,33 310,27.624 310,21 C310,14.376 304.624,9 298,9 Z M298,30.6 C292.708,30.6 288.4,26.292 288.4,21 C288.4,20.652 288.424,20.304 288.46,19.968 C291.292,18.708 293.536,16.392 294.712,13.524 C296.884,16.596 300.46,18.6 304.504,18.6 C305.44,18.6 306.34,18.492 307.204,18.288 C307.456,19.14 307.6,20.052 307.6,21 C307.6,26.292 303.292,30.6 298,30.6 Z" id="Shape"></path>
        </g>
    </g>
</svg>